<svg width="14" height="14" viewBox="0 0 14 14" fill="none" xmlns="http://www.w3.org/2000/svg">
<path d="M2.91667 12.2501C2.59583 12.2501 2.32118 12.1359 2.09271 11.9074C1.86424 11.6789 1.75 11.4043 1.75 11.0834V2.91676C1.75 2.59593 1.86424 2.32128 2.09271 2.09281C2.32118 1.86433 2.59583 1.7501 2.91667 1.7501H8.12292L6.95625 2.91676H2.91667V11.0834H11.0833V7.02926L12.25 5.8626V11.0834C12.25 11.4043 12.1358 11.6789 11.9073 11.9074C11.6788 12.1359 11.4042 12.2501 11.0833 12.2501H2.91667ZM5.25 8.7501V6.27093L10.6021 0.918848C10.7187 0.802181 10.85 0.714681 10.9958 0.656348C11.1417 0.598014 11.2875 0.568848 11.4333 0.568848C11.5889 0.568848 11.7372 0.598014 11.8781 0.656348C12.0191 0.714681 12.1479 0.802181 12.2646 0.918848L13.0812 1.7501C13.1882 1.86676 13.2708 1.99558 13.3292 2.13656C13.3875 2.27753 13.4167 2.42093 13.4167 2.56676C13.4167 2.7126 13.3899 2.856 13.3365 2.99697C13.283 3.13794 13.1979 3.26676 13.0812 3.38343L7.72917 8.7501H5.25ZM6.41667 7.58343H7.23333L10.6167 4.2001L10.2083 3.79176L9.78542 3.38343L6.41667 6.75218V7.58343Z" fill="black"/>
</svg>
