<svg width="29" height="25" viewBox="0 0 29 25" fill="none" xmlns="http://www.w3.org/2000/svg">
<path d="M22.8855 24.5312C21.3542 24.5312 20.0599 24.0026 19.0026 22.9453C17.9454 21.888 17.4167 20.5938 17.4167 19.0625C17.4167 17.5312 17.9454 16.237 19.0026 15.1797C20.0599 14.1224 21.3542 13.5938 22.8855 13.5938C24.4167 13.5938 25.711 14.1224 26.7683 15.1797C27.8256 16.237 28.3542 17.5312 28.3542 19.0625C28.3542 20.5938 27.8256 21.888 26.7683 22.9453C25.711 24.0026 24.4167 24.5312 22.8855 24.5312ZM22.8855 21.6146C23.5903 21.6146 24.1919 21.3654 24.6901 20.8672C25.1884 20.3689 25.4375 19.7674 25.4375 19.0625C25.4375 18.3576 25.1884 17.7561 24.6901 17.2578C24.1919 16.7595 23.5903 16.5104 22.8855 16.5104C22.1806 16.5104 21.579 16.7595 21.0808 17.2578C20.5825 17.7561 20.3334 18.3576 20.3334 19.0625C20.3334 19.7674 20.5825 20.3689 21.0808 20.8672C21.579 21.3654 22.1806 21.6146 22.8855 21.6146ZM2.83337 20.5208V17.6042H14.5V20.5208H2.83337ZM6.11462 11.4062C4.58337 11.4062 3.2891 10.8776 2.23181 9.82031C1.17452 8.76302 0.645874 7.46875 0.645874 5.9375C0.645874 4.40625 1.17452 3.11198 2.23181 2.05469C3.2891 0.997396 4.58337 0.46875 6.11462 0.46875C7.64587 0.46875 8.94015 0.997396 9.99744 2.05469C11.0547 3.11198 11.5834 4.40625 11.5834 5.9375C11.5834 7.46875 11.0547 8.76302 9.99744 9.82031C8.94015 10.8776 7.64587 11.4062 6.11462 11.4062ZM6.11462 8.48958C6.81949 8.48958 7.42105 8.24045 7.91931 7.74219C8.41758 7.24392 8.66671 6.64236 8.66671 5.9375C8.66671 5.23264 8.41758 4.63108 7.91931 4.13281C7.42105 3.63455 6.81949 3.38542 6.11462 3.38542C5.40976 3.38542 4.8082 3.63455 4.30994 4.13281C3.81167 4.63108 3.56254 5.23264 3.56254 5.9375C3.56254 6.64236 3.81167 7.24392 4.30994 7.74219C4.8082 8.24045 5.40976 8.48958 6.11462 8.48958ZM14.5 7.39583V4.47917H26.1667V7.39583H14.5Z" fill="black"/>
</svg>
