<svg width="100" height="25" viewBox="0 0 100 25" fill="none" xmlns="http://www.w3.org/2000/svg">
<rect width="50" height="25" fill="#00473E"/>
<rect x="50" width="50" height="25" fill="#FAAE2B"/>
<path d="M80.18 20.064C80.444 19.464 80.492 19.056 80.492 18.504C80.492 16.68 80.492 8.16 80.492 5.472C80.492 4.584 80.348 3.432 80.204 2.76H83.972C83.852 3.672 83.756 4.56 83.756 5.472C83.756 8.136 83.756 16.128 83.756 17.952C87.668 16.848 93.02 13.776 96.092 10.008L97.796 12.744C94.508 16.656 89.516 19.536 83.852 21.384C83.54 21.48 83.012 21.648 82.436 22.032L80.18 20.064Z" fill="#F2F7F5"/>
<path d="M54.244 3.96C55.156 4.056 56.38 4.128 57.22 4.128H69.316C70.012 4.128 70.996 4.08 71.404 4.056C71.38 4.632 71.332 5.568 71.332 6.288V18.72C71.332 19.56 71.404 20.808 71.452 21.552H67.972C67.996 20.832 68.02 19.968 68.02 19.08V7.224H57.22C56.212 7.224 54.916 7.272 54.244 7.32V3.96ZM53.956 16.992C54.772 17.064 55.852 17.136 56.932 17.136H69.916V20.304H57.028C56.092 20.304 54.748 20.352 53.956 20.448V16.992Z" fill="#F2F7F5"/>
<path d="M44.772 3.30802C44.772 4.07602 45.396 4.70002 46.164 4.70002C46.932 4.70002 47.556 4.07602 47.556 3.30802C47.556 2.54002 46.932 1.91602 46.164 1.91602C45.396 1.91602 44.772 2.54002 44.772 3.30802ZM43.284 3.30802C43.284 1.72402 44.58 0.428023 46.164 0.428023C47.748 0.428023 49.044 1.72402 49.044 3.30802C49.044 4.89202 47.748 6.18802 46.164 6.18802C44.58 6.18802 43.284 4.89202 43.284 3.30802ZM46.212 5.20402C45.972 5.66002 45.804 6.35602 45.684 6.86002C45.132 9.21202 44.076 12.956 42.06 15.62C39.9 18.5 36.708 20.876 32.412 22.244L29.796 19.364C34.572 18.26 37.284 16.172 39.204 13.748C40.812 11.756 41.724 9.02002 42.036 6.95602C40.572 6.95602 32.652 6.95602 30.852 6.95602C29.748 6.95602 28.62 7.02802 27.996 7.07602V3.66802C28.716 3.76402 30.06 3.88402 30.852 3.88402C32.652 3.88402 40.62 3.88402 41.964 3.88402C42.444 3.88402 43.212 3.86002 43.836 3.69202L46.212 5.20402Z" fill="#F2F7F5"/>
<path d="M13.268 1.752C13.196 2.328 13.124 3.336 13.1 3.912C12.836 13.44 10.58 18.312 5.276 22.08L2.468 19.824C3.476 19.272 4.676 18.48 5.636 17.496C8.78 14.376 9.884 10.296 9.908 3.96C9.908 3.432 9.812 2.328 9.716 1.752H13.268ZM21.404 6.912C21.332 7.296 21.26 7.896 21.26 8.16C21.164 10.776 20.852 17.472 19.82 19.92C19.316 21.12 18.38 21.768 16.748 21.768C15.356 21.768 13.94 21.648 12.764 21.552L12.38 18.36C13.58 18.552 14.804 18.696 15.764 18.696C16.532 18.696 16.868 18.432 17.108 17.832C17.804 16.32 18.14 11.52 18.14 8.928H6.428C5.612 8.928 4.268 8.952 3.26 9.048V5.88C4.268 6 5.492 6.048 6.404 6.048H17.516C18.14 6.048 18.764 6 19.34 5.88L21.404 6.912Z" fill="#F2F7F5"/>
<path d="M44.5 3.25C44.5 3.47981 44.5453 3.70738 44.6332 3.9197C44.7212 4.13202 44.8501 4.32493 45.0126 4.48744C45.1751 4.64994 45.368 4.77884 45.5803 4.86679C45.7926 4.95473 46.0202 5 46.25 5C46.4798 5 46.7074 4.95473 46.9197 4.86679C47.132 4.77884 47.3249 4.64994 47.4874 4.48744C47.6499 4.32493 47.7788 4.13202 47.8668 3.9197C47.9547 3.70738 48 3.47981 48 3.25L46.25 3.25L44.5 3.25Z" fill="#FAAE2B"/>
<path d="M48 3.25C48 3.02019 47.9547 2.79262 47.8668 2.5803C47.7788 2.36798 47.6499 2.17507 47.4874 2.01256C47.3249 1.85006 47.132 1.72116 46.9197 1.63321C46.7074 1.54527 46.4798 1.5 46.25 1.5C46.0202 1.5 45.7926 1.54527 45.5803 1.63321C45.368 1.72116 45.1751 1.85006 45.0126 2.01256C44.8501 2.17507 44.7212 2.36798 44.6332 2.5803C44.5453 2.79262 44.5 3.02019 44.5 3.25L46.25 3.25H48Z" fill="#475D5B"/>
</svg>
